<mxfile host="app.diagrams.net" modified="2024-01-12T14:21:52.928Z" agent="Mozilla/5.0 (Windows NT 10.0; Win64; x64) AppleWebKit/537.36 (KHTML, like Gecko) Chrome/120.0.0.0 Safari/537.36 Edg/120.0.0.0" etag="Fj2s2PN6jG2c6ZQRucZW" version="22.1.18" type="device">
  <diagram name="Page-1" id="xSPDsSSku4WhWYePaTmC">
    <mxGraphModel dx="2276" dy="751" grid="1" gridSize="10" guides="1" tooltips="1" connect="1" arrows="1" fold="1" page="1" pageScale="1" pageWidth="850" pageHeight="1100" math="0" shadow="0">
      <root>
        <mxCell id="0" />
        <mxCell id="1" parent="0" />
        <mxCell id="Fc47hk2zfEVBZPdG3gAl-11" style="edgeStyle=orthogonalEdgeStyle;rounded=0;orthogonalLoop=1;jettySize=auto;html=1;" edge="1" parent="1" source="Fc47hk2zfEVBZPdG3gAl-7" target="Fc47hk2zfEVBZPdG3gAl-9">
          <mxGeometry relative="1" as="geometry" />
        </mxCell>
        <mxCell id="Fc47hk2zfEVBZPdG3gAl-7" value="Users" style="sketch=0;outlineConnect=0;fontColor=#232F3E;gradientColor=none;fillColor=#232F3D;strokeColor=none;dashed=0;verticalLabelPosition=bottom;verticalAlign=top;align=center;html=1;fontSize=12;fontStyle=0;aspect=fixed;pointerEvents=1;shape=mxgraph.aws4.users;" vertex="1" parent="1">
          <mxGeometry x="-180" y="250" width="78" height="78" as="geometry" />
        </mxCell>
        <mxCell id="Fc47hk2zfEVBZPdG3gAl-9" value="Desktop" style="sketch=0;outlineConnect=0;gradientColor=none;fontColor=#545B64;strokeColor=none;fillColor=#879196;dashed=0;verticalLabelPosition=bottom;verticalAlign=top;align=center;html=1;fontSize=12;fontStyle=0;aspect=fixed;shape=mxgraph.aws4.illustration_desktop;pointerEvents=1" vertex="1" parent="1">
          <mxGeometry x="-50" y="243.5" width="100" height="91" as="geometry" />
        </mxCell>
        <mxCell id="Fc47hk2zfEVBZPdG3gAl-10" value="AWS Cloud" style="points=[[0,0],[0.25,0],[0.5,0],[0.75,0],[1,0],[1,0.25],[1,0.5],[1,0.75],[1,1],[0.75,1],[0.5,1],[0.25,1],[0,1],[0,0.75],[0,0.5],[0,0.25]];outlineConnect=0;gradientColor=none;html=1;whiteSpace=wrap;fontSize=12;fontStyle=0;container=1;pointerEvents=0;collapsible=0;recursiveResize=0;shape=mxgraph.aws4.group;grIcon=mxgraph.aws4.group_aws_cloud;strokeColor=#232F3E;fillColor=none;verticalAlign=top;align=left;spacingLeft=30;fontColor=#232F3E;dashed=0;" vertex="1" parent="1">
          <mxGeometry x="90" y="130" width="620" height="420" as="geometry" />
        </mxCell>
        <mxCell id="Fc47hk2zfEVBZPdG3gAl-2" value="RDS" style="sketch=0;outlineConnect=0;fontColor=#232F3E;gradientColor=none;fillColor=#C925D1;strokeColor=none;dashed=0;verticalLabelPosition=bottom;verticalAlign=top;align=center;html=1;fontSize=12;fontStyle=0;aspect=fixed;pointerEvents=1;shape=mxgraph.aws4.rds_postgresql_instance;" vertex="1" parent="Fc47hk2zfEVBZPdG3gAl-10">
          <mxGeometry x="360" y="300" width="78" height="78" as="geometry" />
        </mxCell>
        <mxCell id="Fc47hk2zfEVBZPdG3gAl-14" style="edgeStyle=orthogonalEdgeStyle;rounded=0;orthogonalLoop=1;jettySize=auto;html=1;" edge="1" parent="Fc47hk2zfEVBZPdG3gAl-10" source="Fc47hk2zfEVBZPdG3gAl-5" target="Fc47hk2zfEVBZPdG3gAl-2">
          <mxGeometry relative="1" as="geometry" />
        </mxCell>
        <mxCell id="Fc47hk2zfEVBZPdG3gAl-5" value="Lambda" style="sketch=0;points=[[0,0,0],[0.25,0,0],[0.5,0,0],[0.75,0,0],[1,0,0],[0,1,0],[0.25,1,0],[0.5,1,0],[0.75,1,0],[1,1,0],[0,0.25,0],[0,0.5,0],[0,0.75,0],[1,0.25,0],[1,0.5,0],[1,0.75,0]];outlineConnect=0;fontColor=#232F3E;fillColor=#ED7100;strokeColor=#ffffff;dashed=0;verticalLabelPosition=bottom;verticalAlign=top;align=center;html=1;fontSize=12;fontStyle=0;aspect=fixed;shape=mxgraph.aws4.resourceIcon;resIcon=mxgraph.aws4.lambda;" vertex="1" parent="Fc47hk2zfEVBZPdG3gAl-10">
          <mxGeometry x="360" y="120" width="78" height="78" as="geometry" />
        </mxCell>
        <mxCell id="Fc47hk2zfEVBZPdG3gAl-4" value="API Gateway" style="sketch=0;points=[[0,0,0],[0.25,0,0],[0.5,0,0],[0.75,0,0],[1,0,0],[0,1,0],[0.25,1,0],[0.5,1,0],[0.75,1,0],[1,1,0],[0,0.25,0],[0,0.5,0],[0,0.75,0],[1,0.25,0],[1,0.5,0],[1,0.75,0]];outlineConnect=0;fontColor=#232F3E;fillColor=#E7157B;strokeColor=#ffffff;dashed=0;verticalLabelPosition=bottom;verticalAlign=top;align=center;html=1;fontSize=12;fontStyle=0;aspect=fixed;shape=mxgraph.aws4.resourceIcon;resIcon=mxgraph.aws4.api_gateway;" vertex="1" parent="Fc47hk2zfEVBZPdG3gAl-10">
          <mxGeometry x="190" y="120" width="78" height="78" as="geometry" />
        </mxCell>
        <mxCell id="Fc47hk2zfEVBZPdG3gAl-13" style="edgeStyle=orthogonalEdgeStyle;rounded=0;orthogonalLoop=1;jettySize=auto;html=1;entryX=0;entryY=0.5;entryDx=0;entryDy=0;entryPerimeter=0;" edge="1" parent="Fc47hk2zfEVBZPdG3gAl-10" source="Fc47hk2zfEVBZPdG3gAl-4" target="Fc47hk2zfEVBZPdG3gAl-5">
          <mxGeometry relative="1" as="geometry" />
        </mxCell>
        <mxCell id="Fc47hk2zfEVBZPdG3gAl-15" value="Cloudwatch" style="sketch=0;points=[[0,0,0],[0.25,0,0],[0.5,0,0],[0.75,0,0],[1,0,0],[0,1,0],[0.25,1,0],[0.5,1,0],[0.75,1,0],[1,1,0],[0,0.25,0],[0,0.5,0],[0,0.75,0],[1,0.25,0],[1,0.5,0],[1,0.75,0]];points=[[0,0,0],[0.25,0,0],[0.5,0,0],[0.75,0,0],[1,0,0],[0,1,0],[0.25,1,0],[0.5,1,0],[0.75,1,0],[1,1,0],[0,0.25,0],[0,0.5,0],[0,0.75,0],[1,0.25,0],[1,0.5,0],[1,0.75,0]];outlineConnect=0;fontColor=#232F3E;fillColor=#E7157B;strokeColor=#ffffff;dashed=0;verticalLabelPosition=bottom;verticalAlign=top;align=center;html=1;fontSize=12;fontStyle=0;aspect=fixed;shape=mxgraph.aws4.resourceIcon;resIcon=mxgraph.aws4.cloudwatch_2;" vertex="1" parent="Fc47hk2zfEVBZPdG3gAl-10">
          <mxGeometry x="520" y="32" width="78" height="78" as="geometry" />
        </mxCell>
        <mxCell id="Fc47hk2zfEVBZPdG3gAl-16" style="edgeStyle=orthogonalEdgeStyle;rounded=0;orthogonalLoop=1;jettySize=auto;html=1;entryX=0;entryY=0.5;entryDx=0;entryDy=0;entryPerimeter=0;" edge="1" parent="Fc47hk2zfEVBZPdG3gAl-10" source="Fc47hk2zfEVBZPdG3gAl-5" target="Fc47hk2zfEVBZPdG3gAl-15">
          <mxGeometry relative="1" as="geometry" />
        </mxCell>
        <mxCell id="Fc47hk2zfEVBZPdG3gAl-19" style="edgeStyle=orthogonalEdgeStyle;rounded=0;orthogonalLoop=1;jettySize=auto;html=1;" edge="1" parent="Fc47hk2zfEVBZPdG3gAl-10" source="Fc47hk2zfEVBZPdG3gAl-17" target="Fc47hk2zfEVBZPdG3gAl-4">
          <mxGeometry relative="1" as="geometry" />
        </mxCell>
        <mxCell id="Fc47hk2zfEVBZPdG3gAl-17" value="Amplify" style="sketch=0;points=[[0,0,0],[0.25,0,0],[0.5,0,0],[0.75,0,0],[1,0,0],[0,1,0],[0.25,1,0],[0.5,1,0],[0.75,1,0],[1,1,0],[0,0.25,0],[0,0.5,0],[0,0.75,0],[1,0.25,0],[1,0.5,0],[1,0.75,0]];outlineConnect=0;fontColor=#232F3E;fillColor=#DD344C;strokeColor=#ffffff;dashed=0;verticalLabelPosition=bottom;verticalAlign=top;align=center;html=1;fontSize=12;fontStyle=0;aspect=fixed;shape=mxgraph.aws4.resourceIcon;resIcon=mxgraph.aws4.amplify;" vertex="1" parent="Fc47hk2zfEVBZPdG3gAl-10">
          <mxGeometry x="50" y="120" width="78" height="78" as="geometry" />
        </mxCell>
        <mxCell id="Fc47hk2zfEVBZPdG3gAl-18" style="edgeStyle=orthogonalEdgeStyle;rounded=0;orthogonalLoop=1;jettySize=auto;html=1;entryX=0;entryY=0.5;entryDx=0;entryDy=0;entryPerimeter=0;" edge="1" parent="1" source="Fc47hk2zfEVBZPdG3gAl-9" target="Fc47hk2zfEVBZPdG3gAl-17">
          <mxGeometry relative="1" as="geometry" />
        </mxCell>
      </root>
    </mxGraphModel>
  </diagram>
</mxfile>
